<svg xmlns="http://www.w3.org/2000/svg" viewBox="0 0 1200 1500" role="img" aria-label="Nymphai still life">
  <defs>
    <linearGradient id="bg-trav" x1="0.15" y1="0" x2="0.85" y2="1">
      <stop offset="0" stop-color="#D9C7AE"/>
      <stop offset="1" stop-color="#B79E7E"/>
    </linearGradient>
    <radialGradient id="key-trav" cx="0.34" cy="0.26" r="0.72">
      <stop offset="0" stop-color="#FFFFFF" stop-opacity="0.4"/>
      <stop offset="1" stop-color="#FFFFFF" stop-opacity="0"/>
    </radialGradient>
    <radialGradient id="vig-trav" cx="0.5" cy="0.46" r="0.74">
      <stop offset="0.46" stop-color="#2A241B" stop-opacity="0"/>
      <stop offset="1" stop-color="#2A241B" stop-opacity="0.55"/>
    </radialGradient>
    <linearGradient id="plinth-trav" x1="0" y1="0" x2="1" y2="0.2">
      <stop offset="0" stop-color="#E6D8C1"/>
      <stop offset="0.55" stop-color="#CBB89C"/>
      <stop offset="1" stop-color="#E6D8C1" stop-opacity="0.72"/>
    </linearGradient>
    
    <filter id="grain-trav" x="0" y="0" width="100%" height="100%">
      <feTurbulence type="fractalNoise" baseFrequency="0.85" numOctaves="3" stitchTiles="stitch"/>
      <feColorMatrix type="saturate" values="0"/>
      <feComponentTransfer><feFuncA type="linear" slope="0.13"/></feComponentTransfer>
    </filter>
  </defs>

  <rect width="1200" height="1500" fill="url(#bg-trav)"/>
  <circle cx="232" cy="180" r="88" fill="#FFFFFF" fill-opacity="0.080"/><circle cx="427" cy="433" r="120" fill="#FFFFFF" fill-opacity="0.119"/><circle cx="155" cy="1269" r="109" fill="#FFFFFF" fill-opacity="0.051"/><circle cx="64" cy="1422" r="187" fill="#FFFFFF" fill-opacity="0.067"/><circle cx="1211" cy="986" r="163" fill="#FFFFFF" fill-opacity="0.064"/><circle cx="-66" cy="500" r="133" fill="#FFFFFF" fill-opacity="0.108"/><circle cx="568" cy="828" r="149" fill="#FFFFFF" fill-opacity="0.105"/><circle cx="542" cy="25" r="168" fill="#FFFFFF" fill-opacity="0.065"/><circle cx="745" cy="50" r="110" fill="#FFFFFF" fill-opacity="0.040"/><circle cx="741" cy="632" r="194" fill="#FFFFFF" fill-opacity="0.098"/><circle cx="755" cy="1232" r="112" fill="#FFFFFF" fill-opacity="0.085"/><circle cx="981" cy="112" r="126" fill="#FFFFFF" fill-opacity="0.041"/><circle cx="671" cy="1566" r="84" fill="#FFFFFF" fill-opacity="0.059"/><circle cx="1262" cy="1404" r="168" fill="#FFFFFF" fill-opacity="0.062"/><circle cx="870" cy="457" r="130" fill="#FFFFFF" fill-opacity="0.043"/><circle cx="960" cy="897" r="78" fill="#FFFFFF" fill-opacity="0.105"/>
  <rect width="1200" height="1500" fill="url(#key-trav)"/>

  <!-- soft leaf shadows raking across the backdrop -->
  <g opacity="0.2" fill="#2A241B">
    <path d="M744 -40 q140 260 -10 520 q-120 200 40 420" stroke="#2A241B" stroke-width="90" stroke-opacity="0.16" fill="none" stroke-linecap="round"/>
    <path d="M1032 60 q90 300 -40 560" stroke="#2A241B" stroke-width="56" stroke-opacity="0.12" fill="none" stroke-linecap="round"/>
  </g>

  <!-- plinth -->
  <g>
    <ellipse cx="600" cy="1267.5" rx="504" ry="46" fill="#2A241B" fill-opacity="0.16"/>
    <rect x="120" y="1200" width="960" height="180" rx="16" fill="url(#plinth-trav)"/>
    <rect x="120" y="1200" width="960" height="16" rx="8" fill="#FFFFFF" fill-opacity="0.28"/>
    <g fill="#2A241B" fill-opacity="0.12">
      <ellipse cx="288" cy="1282.5" rx="34" ry="11"/>
      <ellipse cx="491.99999999999994" cy="1327.5" rx="22" ry="8"/>
      <ellipse cx="792" cy="1272" rx="41" ry="12"/>
      <ellipse cx="948" cy="1332" rx="18" ry="7"/>
    </g>
  </g>

  <!-- orchid branch -->
  <path d="M72 1350 C 360 1230, 504 900, 600 525"
        stroke="#2A241B" stroke-opacity="0.34" stroke-width="7" fill="none" stroke-linecap="round"/>
  <path d="M1164 930 C 960 900, 840 750, 744 450"
        stroke="#2A241B" stroke-opacity="0.28" stroke-width="6" fill="none" stroke-linecap="round"/>

  <g opacity="1">
      <ellipse cx="252.1" cy="1061.6" rx="36.5" ry="49.9" fill="#E3D6C1" fill-opacity="0.95" transform="rotate(14.0 252.1 1061.6)"/>
      <ellipse cx="292.7" cy="1106.3" rx="44.2" ry="53.8" fill="#FBF6EC" fill-opacity="0.96" transform="rotate(86.0 292.7 1106.3)"/>
      <ellipse cx="195.2" cy="1082.0" rx="44.2" ry="53.8" fill="#FBF6EC" fill-opacity="0.96" transform="rotate(-58.0 195.2 1082.0)"/>
      <ellipse cx="260.9" cy="1161.6" rx="40.3" ry="48.0" fill="#E3D6C1" fill-opacity="0.9" transform="rotate(158.0 260.9 1161.6)"/>
      <ellipse cx="197.3" cy="1145.8" rx="40.3" ry="48.0" fill="#E3D6C1" fill-opacity="0.9" transform="rotate(230.0 197.3 1145.8)"/>
      <ellipse cx="240" cy="1110" rx="28.8" ry="25.0" fill="#FBF6EC" fill-opacity="0.9"/>
      <ellipse cx="240" cy="1115.8" rx="14.4" ry="16.3" fill="#D8C89F" fill-opacity="0.85"/>
    </g>
  <g opacity="0.94">
      <ellipse cx="416.8" cy="877.4" rx="29.6" ry="40.6" fill="#E3D6C1" fill-opacity="0.95" transform="rotate(-22.0 416.8 877.4)"/>
      <ellipse cx="464.9" cy="887.4" rx="35.9" ry="43.7" fill="#FBF6EC" fill-opacity="0.96" transform="rotate(50.0 464.9 887.4)"/>
      <ellipse cx="389.2" cy="918.0" rx="35.9" ry="43.7" fill="#FBF6EC" fill-opacity="0.96" transform="rotate(-94.0 389.2 918.0)"/>
      <ellipse cx="470.4" cy="939.0" rx="32.8" ry="39.0" fill="#E3D6C1" fill-opacity="0.9" transform="rotate(122.0 470.4 939.0)"/>
      <ellipse cx="421.1" cy="958.9" rx="32.8" ry="39.0" fill="#E3D6C1" fill-opacity="0.9" transform="rotate(194.0 421.1 958.9)"/>
      <ellipse cx="432" cy="915" rx="23.4" ry="20.3" fill="#FBF6EC" fill-opacity="0.9"/>
      <ellipse cx="432" cy="919.7" rx="11.7" ry="13.3" fill="#D8C89F" fill-opacity="0.85"/>
    </g>
  <g opacity="1">
      <ellipse cx="987.9" cy="932.3" rx="42.6" ry="58.2" fill="#E3D6C1" fill-opacity="0.95" transform="rotate(-8.0 987.9 932.3)"/>
      <ellipse cx="1051.4" cy="963.0" rx="51.5" ry="62.7" fill="#FBF6EC" fill-opacity="0.96" transform="rotate(64.0 1051.4 963.0)"/>
      <ellipse cx="935.3" cy="979.3" rx="51.5" ry="62.7" fill="#FBF6EC" fill-opacity="0.96" transform="rotate(-80.0 935.3 979.3)"/>
      <ellipse cx="1041.1" cy="1036.7" rx="47.0" ry="56.0" fill="#E3D6C1" fill-opacity="0.9" transform="rotate(136.0 1041.1 1036.7)"/>
      <ellipse cx="965.5" cy="1047.4" rx="47.0" ry="56.0" fill="#E3D6C1" fill-opacity="0.9" transform="rotate(208.0 965.5 1047.4)"/>
      <ellipse cx="996" cy="990" rx="33.6" ry="29.1" fill="#FBF6EC" fill-opacity="0.9"/>
      <ellipse cx="996" cy="996.7" rx="16.8" ry="19.0" fill="#D8C89F" fill-opacity="0.85"/>
    </g>
  <g opacity="0.9">
      <ellipse cx="868.0" cy="627.3" rx="26.6" ry="36.4" fill="#E3D6C1" fill-opacity="0.95" transform="rotate(26.0 868.0 627.3)"/>
      <ellipse cx="890.1" cy="665.4" rx="32.2" ry="39.2" fill="#FBF6EC" fill-opacity="0.96" transform="rotate(98.0 890.1 665.4)"/>
      <ellipse cx="824.3" cy="633.3" rx="32.2" ry="39.2" fill="#FBF6EC" fill-opacity="0.96" transform="rotate(-46.0 824.3 633.3)"/>
      <ellipse cx="859.1" cy="700.0" rx="29.4" ry="35.0" fill="#E3D6C1" fill-opacity="0.9" transform="rotate(170.0 859.1 700.0)"/>
      <ellipse cx="816.2" cy="679.1" rx="29.4" ry="35.0" fill="#E3D6C1" fill-opacity="0.9" transform="rotate(242.0 816.2 679.1)"/>
      <ellipse cx="852" cy="660" rx="21.0" ry="18.2" fill="#FBF6EC" fill-opacity="0.9"/>
      <ellipse cx="852" cy="664.2" rx="10.5" ry="11.9" fill="#D8C89F" fill-opacity="0.85"/>
    </g>
  <ellipse cx="120" cy="1230" rx="15.6" ry="30" fill="#EFE7D8" fill-opacity="0.92" transform="rotate(24 120 1230)"/>
  <ellipse cx="180" cy="1305" rx="12.5" ry="24" fill="#EFE7D8" fill-opacity="0.92" transform="rotate(-12 180 1305)"/>
  <ellipse cx="1116" cy="795" rx="14.0" ry="27" fill="#EFE7D8" fill-opacity="0.92" transform="rotate(32 1116 795)"/>

  <rect width="1200" height="1500" fill="url(#vig-trav)"/>
  <rect width="1200" height="1500" filter="url(#grain-trav)" opacity="0.5"/>
</svg>
